#tb 0: 1/25
#media_type 0: video
#codec_id 0: rawvideo
#dimensions 0: 720x480
#sar 0: 0/1
0,          1,          1,        1,   518400, 0xc93c7c47
0,          2,          2,        1,   518400, 0xa3f2e502
0,          3,          3,        1,   518400, 0xb98920a4
0,          4,          4,        1,   518400, 0xad098ec1
0,          5,          5,        1,   518400, 0x3009b7aa
0,          6,          6,        1,   518400, 0xcf514018
0,          7,          7,        1,   518400, 0xd869038d
0,          8,          8,        1,   518400, 0x3ce5e188
0,          9,          9,        1,   518400, 0x029b4c14
0,         10,         10,        1,   518400, 0xd2224afc
0,         11,         11,        1,   518400, 0xbbca027c
0,         12,         12,        1,   518400, 0x1f3fa0ac
0,         13,         13,        1,   518400, 0x823b0125
0,         14,         14,        1,   518400, 0xaaa27cfb
0,         15,         15,        1,   518400, 0x5e926a4a
